# xmcd
# 
# Track frame offsets:
#     150
#     2472
#     19877
#     48762
#     68230
#     89403
#     108367
#     139788
#     175052
#     202044
#     228851
#     254916
#     276938
#     295702
# 
# Disc length: 4280
# 
# Revision: 2
# Processed by: cddbd v1.5.2PL0 Copyright (c) Steve Scherf et al.
# Submitted via: fre:ac v1.0.27
# 
DISCID=c310b60e
DTITLE=Grady Champion (featuring Eddie Cotton Jr.) - Back In Mississippi Live At The 930 Blues Cafe
DYEAR=2007
DGENRE=Blues
TTITLE0=Intro
TTITLE1=I'm Ready
TTITLE2=Baby What You Want To Do - Bright Lights
TTITLE3=You Got Some Explaining To Do
TTITLE4=1-800-Blu-Love
TTITLE5=Policeman Blues
TTITLE6=Spoonful
TTITLE7=Lonesome Bedroom Blues
TTITLE8=Love and Memories
TTITLE9=Why I Sing The Blues
TTITLE10=Wine and Women
TTITLE11=Brother Brother
TTITLE12=I'm Yours
TTITLE13=Blues On Christmas
EXTD=
EXTT0=
EXTT1=
EXTT2=
EXTT3=
EXTT4=
EXTT5=
EXTT6=
EXTT7=
EXTT8=
EXTT9=
EXTT10=
EXTT11=
EXTT12=
EXTT13=
PLAYORDER=
